<?xml version="1.0" standalone="no"?>
<!DOCTYPE svg PUBLIC "-//W3C//DTD SVG 20010904//EN"
 "http://www.w3.org/TR/2001/REC-SVG-20010904/DTD/svg10.dtd">
<svg version="1.0" xmlns="http://www.w3.org/2000/svg"
 width="900.000000pt" height="260.000000pt" viewBox="0 0 900.000000 260.000000"
 preserveAspectRatio="xMidYMid meet">
<metadata>
Created by potrace 1.15, written by Peter Selinger 2001-2017
</metadata>
<g transform="translate(0.000000,260.000000) scale(0.100000,-0.100000)"
fill="#000000" stroke="none">
<path d="M7645 2133 c-47 -121 -309 -812 -312 -825 -5 -16 2 -18 51 -18 31 0
56 -2 56 -4 0 -3 -67 -182 -150 -398 -82 -216 -150 -398 -150 -404 0 -15 31
-27 40 -17 5 6 262 681 328 861 3 9 -11 12 -52 12 -31 0 -56 3 -56 8 0 4 67
182 149 397 82 214 147 393 145 397 -9 15 -42 8 -49 -9z"/>
<path d="M4200 1648 c0 -347 0 -353 -19 -323 -30 50 -109 115 -179 148 -63 30
-74 32 -182 32 -109 0 -119 -2 -183 -32 -323 -153 -325 -615 -4 -773 183 -90
419 -31 538 133 l29 40 0 -40 c0 -64 11 -101 36 -127 30 -29 71 -39 78 -19 11
28 6 43 -13 43 -11 0 -27 10 -35 22 -14 20 -16 97 -16 635 l0 613 -25 0 -25 0
0 -352z m-215 -222 c76 -38 143 -105 181 -181 26 -54 29 -70 29 -160 0 -93 -2
-105 -33 -167 -38 -78 -100 -138 -182 -177 -48 -23 -68 -26 -160 -26 -95 0
-110 3 -163 28 -74 37 -147 110 -183 184 -25 51 -29 69 -29 153 0 83 3 102 28
155 45 97 142 182 247 216 14 5 66 7 115 6 77 -2 99 -6 150 -31z"/>
<path d="M3702 1393 c-60 -21 -144 -102 -173 -165 -19 -42 -24 -70 -24 -138 0
-110 26 -171 101 -239 62 -57 125 -82 211 -83 164 -2 306 124 321 284 4 53 3
58 -15 58 -17 0 -22 -9 -28 -45 -21 -146 -133 -245 -276 -245 -154 0 -269 119
-269 279 1 131 104 245 235 258 50 5 55 8 55 29 0 22 -4 24 -47 23 -27 0 -67
-7 -91 -16z"/>
<path d="M1595 1490 c-154 -60 -251 -202 -262 -385 -8 -132 29 -235 118 -324
84 -83 180 -122 303 -122 99 0 165 19 240 68 57 38 66 52 43 71 -10 9 -25 3
-62 -24 -70 -49 -140 -67 -240 -62 -64 3 -95 11 -139 32 -105 51 -195 168
-212 275 l-7 41 383 0 383 0 -6 64 c-16 172 -116 310 -265 366 -72 27 -207 27
-277 0z m294 -64 c101 -52 183 -164 198 -271 l6 -45 -358 0 -358 0 6 45 c16
110 102 224 210 276 58 28 68 30 152 26 74 -3 100 -8 144 -31z"/>
<path d="M1615 1386 c-52 -24 -112 -83 -139 -135 -40 -77 5 -84 54 -9 19 29
54 66 78 83 37 25 54 30 115 33 65 3 77 0 124 -27 48 -28 113 -103 113 -130 0
-6 11 -11 25 -11 14 0 25 5 25 10 0 25 -31 81 -67 120 -54 61 -121 90 -208 90
-52 0 -83 -6 -120 -24z"/>
<path d="M2613 1480 c-36 -18 -79 -51 -103 -77 l-40 -46 0 40 c0 50 -38 93
-81 93 -24 0 -29 -4 -29 -25 0 -18 5 -25 19 -25 11 0 27 -10 35 -22 14 -19 16
-73 16 -385 0 -351 1 -363 19 -363 18 0 19 12 23 288 4 324 7 341 85 419 62
62 104 78 204 78 78 0 90 -3 134 -30 27 -17 64 -50 82 -73 56 -73 63 -118 63
-378 0 -227 1 -234 23 -259 12 -14 37 -29 55 -34 31 -9 32 -9 32 20 0 17 -5
29 -13 29 -7 0 -22 6 -33 14 -18 13 -19 32 -24 278 -5 249 -6 265 -28 310 -30
60 -90 120 -150 150 -36 18 -68 24 -137 26 -84 3 -94 1 -152 -28z"/>
<path d="M4805 1497 c-90 -30 -169 -91 -227 -174 -92 -135 -92 -341 1 -477 69
-100 184 -172 294 -184 197 -23 365 66 449 235 32 65 33 72 33 188 0 116 -1
123 -33 188 -43 86 -113 156 -199 199 -62 30 -76 33 -173 35 -66 2 -120 -2
-145 -10z m297 -75 c136 -67 211 -188 211 -337 0 -59 -5 -95 -22 -137 -30 -76
-107 -160 -185 -201 -57 -30 -68 -32 -166 -32 -93 0 -111 3 -162 27 -155 73
-249 243 -220 400 26 140 106 238 241 295 47 20 70 23 146 21 79 -3 99 -7 157
-36z"/>
<path d="M4829 1396 c-151 -54 -235 -199 -209 -361 41 -251 340 -355 533 -186
45 40 94 139 103 209 6 51 6 52 -18 52 -23 0 -26 -5 -31 -50 -8 -70 -53 -147
-105 -184 -58 -42 -96 -54 -163 -55 -107 -2 -193 48 -245 141 -25 46 -29 63
-29 128 0 85 20 134 77 190 43 44 123 80 176 80 38 0 42 2 42 25 0 23 -3 25
-47 25 -27 -1 -64 -7 -84 -14z"/>
<path d="M5863 1496 c-108 -35 -203 -122 -256 -234 -30 -63 -32 -74 -32 -177
0 -103 2 -114 32 -177 52 -111 142 -194 253 -233 59 -21 201 -21 270 -1 58 17
129 56 150 81 11 13 11 18 -2 31 -13 13 -20 11 -66 -20 -77 -52 -139 -69 -235
-65 -65 3 -94 10 -140 32 -152 75 -246 250 -217 405 23 125 104 233 217 289
124 61 300 38 401 -51 24 -21 24 -21 38 -1 14 18 13 22 -18 48 -18 15 -58 40
-88 54 -47 23 -70 27 -160 30 -69 2 -119 -2 -147 -11z"/>
<path d="M915 1310 l-170 -170 175 -175 c134 -134 177 -172 187 -163 7 6 13
15 13 22 0 6 -69 79 -152 163 l-153 153 154 154 c109 109 152 159 148 170 -4
9 -12 16 -19 16 -7 0 -90 -77 -183 -170z"/>
<path d="M7892 1468 c-10 -10 21 -46 145 -170 l158 -158 -158 -158 c-151 -151
-157 -159 -140 -175 18 -16 28 -8 193 158 l175 175 -170 170 c-93 93 -175 170
-180 170 -6 0 -16 -5 -23 -12z"/>
<path d="M2665 1393 c-69 -36 -125 -113 -125 -173 0 -47 34 -41 49 10 14 46
52 95 92 115 36 19 112 19 148 1 42 -22 89 -81 97 -121 5 -28 11 -35 30 -35
26 0 26 8 3 87 -11 35 -85 108 -125 123 -39 15 -135 11 -169 -7z"/>
<path d="M5862 1384 c-28 -14 -74 -50 -101 -80 -65 -71 -85 -130 -79 -238 5
-82 21 -128 67 -186 19 -23 21 -24 37 -8 16 16 15 19 -14 63 -75 114 -62 253
33 347 50 50 98 71 172 76 68 5 120 -8 174 -43 36 -23 37 -23 54 -6 15 18 14
20 -14 40 -63 45 -113 61 -197 61 -66 0 -89 -4 -132 -26z"/>
</g>
</svg>
